<svg width="48" height="48" viewBox="0 0 48 48" fill="none" xmlns="http://www.w3.org/2000/svg">
<path d="M23.5501 17.33L8.5501 9.69001C8.4682 9.64805 8.39946 9.5843 8.35147 9.50578C8.30347 9.42727 8.27808 9.33703 8.27808 9.24501C8.27808 9.15298 8.30347 9.06274 8.35147 8.98423C8.39946 8.90571 8.4682 8.84196 8.5501 8.80001L23.5501 1.11001C23.6922 1.03636 23.85 0.997925 24.0101 0.997925C24.1702 0.997925 24.3279 1.03636 24.4701 1.11001L39.4701 8.80001C39.552 8.84196 39.6207 8.90571 39.6687 8.98423C39.7167 9.06274 39.7421 9.15298 39.7421 9.24501C39.7421 9.33703 39.7167 9.42727 39.6687 9.50578C39.6207 9.5843 39.552 9.64805 39.4701 9.69001L24.4701 17.33C24.3279 17.4036 24.1702 17.4421 24.0101 17.4421C23.85 17.4421 23.6922 17.4036 23.5501 17.33Z" fill="#656769" stroke="#45413C" stroke-linecap="round" stroke-linejoin="round"/>
<path d="M8.31006 9.24001V17.19" stroke="#45413C" stroke-linecap="round" stroke-linejoin="round"/>
<path d="M9.27008 17.18C9.2797 17.0429 9.26096 16.9053 9.21503 16.7758C9.1691 16.6463 9.09697 16.5276 9.00313 16.4272C8.9093 16.3268 8.79577 16.2468 8.66965 16.1922C8.54352 16.1377 8.4075 16.1097 8.27008 16.11C8.13265 16.1097 7.99663 16.1377 7.87051 16.1922C7.74438 16.2468 7.63086 16.3268 7.53702 16.4272C7.44319 16.5276 7.37106 16.6463 7.32513 16.7758C7.2792 16.9053 7.26046 17.0429 7.27008 17.18L7.08008 20.87H9.46008L9.27008 17.18Z" fill="#FFE500" stroke="#45413C" stroke-linecap="round" stroke-linejoin="round"/>
<path d="M24.0001 14.81C19.0001 14.81 14.3501 15.81 13.1201 17.19V31.38C13.1216 31.6248 13.1955 31.8637 13.3325 32.0666C13.4696 32.2694 13.6636 32.4272 13.8901 32.52C20.3775 35.1296 27.6227 35.1296 34.1101 32.52C34.3367 32.4272 34.5307 32.2694 34.6677 32.0666C34.8047 31.8637 34.8786 31.6248 34.8801 31.38V17.19C33.6501 15.86 29.0001 14.81 24.0001 14.81Z" fill="#A86C4D" stroke="#45413C" stroke-linecap="round" stroke-linejoin="round"/>
<path d="M31.5401 34.09L24.0001 31.22L16.4601 34.09C15.1816 34.5779 14.0812 35.4423 13.3045 36.569C12.5278 37.6957 12.1113 39.0315 12.1101 40.4V45H35.8901V40.4C35.8889 39.0315 35.4725 37.6957 34.6957 36.569C33.919 35.4423 32.8187 34.5779 31.5401 34.09Z" fill="#656769"/>
<path d="M31.5401 34.09L24.0001 31.22L16.4601 34.09C15.1816 34.5779 14.0812 35.4423 13.3045 36.569C12.5278 37.6957 12.1113 39.0315 12.1101 40.4V43.4C12.1113 42.0315 12.5278 40.6957 13.3045 39.569C14.0812 38.4423 15.1816 37.5779 16.4601 37.09L24.0001 34.21L31.5401 37.08C32.8187 37.5679 33.919 38.4323 34.6957 39.559C35.4725 40.6857 35.8889 42.0215 35.8901 43.39V40.39C35.8869 39.0232 35.4695 37.6896 34.6929 36.5649C33.9163 35.4401 32.8171 34.5773 31.5401 34.09Z" fill="#525252"/>
<path d="M31.5401 34.09L24.0001 31.22L16.4601 34.09C15.1816 34.5779 14.0812 35.4423 13.3045 36.569C12.5278 37.6957 12.1113 39.0315 12.1101 40.4V45H35.8901V40.4C35.8889 39.0315 35.4725 37.6957 34.6957 36.569C33.919 35.4423 32.8187 34.5779 31.5401 34.09Z" stroke="#45413C" stroke-linecap="round" stroke-linejoin="round"/>
<path d="M24 35.11C24 35.11 21.46 34 21.46 32.57V29.72C21.4587 29.3856 21.5234 29.0542 21.6505 28.7449C21.7775 28.4356 21.9644 28.1544 22.2004 27.9175C22.4364 27.6806 22.7168 27.4926 23.0257 27.3643C23.3345 27.236 23.6656 27.17 24 27.17C24.3344 27.17 24.6655 27.236 24.9743 27.3643C25.2831 27.4926 25.5636 27.6806 25.7996 27.9175C26.0356 28.1544 26.2225 28.4356 26.3495 28.7449C26.4766 29.0542 26.5413 29.3856 26.54 29.72V32.57C26.54 34 24 35.11 24 35.11Z" fill="#FFCEBF"/>
<path d="M24 27.17C23.3263 27.17 22.6803 27.4376 22.2039 27.9139C21.7276 28.3903 21.46 29.0363 21.46 29.71V30.31C21.46 30.9836 21.7276 31.6297 22.2039 32.1061C22.6803 32.5824 23.3263 32.85 24 32.85C24.6736 32.85 25.3197 32.5824 25.796 32.1061C26.2724 31.6297 26.54 30.9836 26.54 30.31V29.72C26.5413 29.3856 26.4766 29.0542 26.3495 28.7449C26.2224 28.4356 26.0356 28.1544 25.7996 27.9175C25.5636 27.6806 25.2831 27.4926 24.9743 27.3643C24.6655 27.236 24.3344 27.17 24 27.17Z" fill="#FFB59E"/>
<path d="M24 35.11C24 35.11 21.46 34 21.46 32.57V29.72C21.4587 29.3856 21.5234 29.0542 21.6505 28.7449C21.7775 28.4356 21.9644 28.1544 22.2004 27.9175C22.4364 27.6806 22.7168 27.4926 23.0257 27.3643C23.3345 27.236 23.6656 27.17 24 27.17C24.3344 27.17 24.6655 27.236 24.9743 27.3643C25.2831 27.4926 25.5636 27.6806 25.7996 27.9175C26.0356 28.1544 26.2225 28.4356 26.3495 28.7449C26.4766 29.0542 26.5413 29.3856 26.54 29.72V32.57C26.54 34 24 35.11 24 35.11Z" stroke="#45413C" stroke-linecap="round" stroke-linejoin="round"/>
<path d="M13.45 36.35L17.06 45" stroke="#45413C" stroke-linecap="round" stroke-linejoin="round"/>
<path d="M34.5499 36.35L30.9399 45" stroke="#45413C" stroke-linecap="round" stroke-linejoin="round"/>
<path d="M20.54 40.48L21.27 45" stroke="#45413C" stroke-linecap="round" stroke-linejoin="round"/>
<path d="M27.46 40.48L26.73 45" stroke="#45413C" stroke-linecap="round" stroke-linejoin="round"/>
<path opacity="0.15" d="M24 47C32.2843 47 39 46.3284 39 45.5C39 44.6716 32.2843 44 24 44C15.7157 44 9 44.6716 9 45.5C9 46.3284 15.7157 47 24 47Z" fill="#45413C"/>
<path d="M33.0699 19.47C31.8099 19.1135 30.6457 18.4794 29.6629 17.6141C28.68 16.7489 27.9033 15.6746 27.3899 14.47L26.7699 13C24.3591 16.2496 20.8014 18.4593 16.8199 19.18L14.9399 19.52C14.4598 19.52 13.9995 19.7107 13.66 20.0501C13.3206 20.3896 13.1299 20.85 13.1299 21.33C13.1299 21.81 13.3206 22.2704 13.66 22.6099C13.9995 22.9493 14.4598 23.14 14.9399 23.14H15.0499C15.2839 25.3506 16.3277 27.3963 17.9802 28.8832C19.6327 30.37 21.777 31.1926 23.9999 31.1926C26.2228 31.1926 28.3671 30.37 30.0196 28.8832C31.6721 27.3963 32.7159 25.3506 32.9499 23.14H33.0699C33.5499 23.14 34.0103 22.9493 34.3497 22.6099C34.6892 22.2704 34.8799 21.81 34.8799 21.33C34.8799 20.85 34.6892 20.3896 34.3497 20.0501C34.0103 19.7107 33.5499 19.52 33.0699 19.52V19.47Z" fill="#FFCEBF" stroke="#45413C" stroke-linecap="round" stroke-linejoin="round"/>
<path d="M18.5699 20.91C18.5699 21.0623 18.6151 21.2112 18.6997 21.3378C18.7843 21.4644 18.9045 21.5631 19.0452 21.6214C19.1859 21.6797 19.3407 21.6949 19.4901 21.6652C19.6395 21.6355 19.7767 21.5622 19.8844 21.4545C19.992 21.3468 20.0654 21.2096 20.0951 21.0602C20.1248 20.9109 20.1096 20.756 20.0513 20.6153C19.993 20.4746 19.8943 20.3544 19.7677 20.2698C19.6411 20.1852 19.4922 20.14 19.3399 20.14C19.2384 20.1387 19.1377 20.1577 19.0436 20.1959C18.9496 20.2341 18.8642 20.2908 18.7924 20.3625C18.7207 20.4343 18.664 20.5197 18.6258 20.6138C18.5875 20.7078 18.5685 20.8085 18.5699 20.91Z" fill="#45413C" stroke="#45413C" stroke-linecap="round" stroke-linejoin="round"/>
<path d="M29.4299 20.91C29.4299 21.0623 29.3847 21.2112 29.3001 21.3378C29.2155 21.4644 29.0953 21.5631 28.9546 21.6214C28.8139 21.6797 28.659 21.6949 28.5097 21.6652C28.3603 21.6355 28.2231 21.5622 28.1154 21.4545C28.0077 21.3468 27.9344 21.2096 27.9047 21.0602C27.875 20.9109 27.8902 20.756 27.9485 20.6153C28.0068 20.4746 28.1055 20.3544 28.2321 20.2698C28.3587 20.1852 28.5076 20.14 28.6599 20.14C28.7614 20.1387 28.8621 20.1577 28.9561 20.1959C29.0502 20.2341 29.1356 20.2908 29.2074 20.3625C29.2791 20.4343 29.3358 20.5197 29.374 20.6138C29.4122 20.7078 29.4312 20.8085 29.4299 20.91Z" fill="#45413C" stroke="#45413C" stroke-linecap="round" stroke-linejoin="round"/>
<path d="M21.1599 25.6C21.0966 25.6014 21.0344 25.6164 20.9775 25.644C20.9205 25.6716 20.8702 25.7112 20.8299 25.76C20.7881 25.8071 20.7573 25.863 20.74 25.9236C20.7227 25.9842 20.7193 26.0479 20.7299 26.11C20.865 26.8792 21.2668 27.5762 21.8649 28.0784C22.463 28.5807 23.2189 28.856 23.9999 28.856C24.7809 28.856 25.5369 28.5807 26.1349 28.0784C26.733 27.5762 27.1349 26.8792 27.2699 26.11C27.2806 26.0479 27.2771 25.9842 27.2598 25.9236C27.2425 25.863 27.2118 25.8071 27.1699 25.76C27.1306 25.7101 27.0805 25.6698 27.0233 25.6421C26.9662 25.6144 26.9034 25.6 26.8399 25.6H21.1599Z" fill="#FF6242"/>
<path d="M24 27C23.0971 26.9647 22.2089 27.2361 21.48 27.77C21.7951 28.1209 22.1805 28.4016 22.6113 28.5937C23.042 28.7858 23.5083 28.8851 23.98 28.8851C24.4516 28.8851 24.918 28.7858 25.3487 28.5937C25.7794 28.4016 26.1649 28.1209 26.48 27.77C25.7619 27.2447 24.8893 26.9737 24 27Z" fill="#FFA694"/>
<path d="M21.1599 25.6C21.0966 25.6014 21.0344 25.6164 20.9775 25.644C20.9205 25.6716 20.8702 25.7112 20.8299 25.76C20.7881 25.8071 20.7573 25.863 20.74 25.9236C20.7227 25.9842 20.7193 26.0479 20.7299 26.11C20.865 26.8792 21.2668 27.5762 21.8649 28.0784C22.463 28.5807 23.2189 28.856 23.9999 28.856C24.7809 28.856 25.5369 28.5807 26.1349 28.0784C26.733 27.5762 27.1349 26.8792 27.2699 26.11C27.2806 26.0479 27.2771 25.9842 27.2598 25.9236C27.2425 25.863 27.2118 25.8071 27.1699 25.76C27.1306 25.7101 27.0805 25.6698 27.0233 25.6421C26.9662 25.6144 26.9034 25.6 26.8399 25.6H21.1599Z" stroke="#45413C" stroke-linecap="round" stroke-linejoin="round"/>
<path d="M18.0601 24.79C18.6123 24.79 19.0601 24.5214 19.0601 24.19C19.0601 23.8586 18.6123 23.59 18.0601 23.59C17.5078 23.59 17.0601 23.8586 17.0601 24.19C17.0601 24.5214 17.5078 24.79 18.0601 24.79Z" fill="#FFB59E"/>
<path d="M29.9399 24.79C30.4922 24.79 30.9399 24.5214 30.9399 24.19C30.9399 23.8586 30.4922 23.59 29.9399 23.59C29.3877 23.59 28.9399 23.8586 28.9399 24.19C28.9399 24.5214 29.3877 24.79 29.9399 24.79Z" fill="#FFB59E"/>
<path d="M33.8499 9C33.5799 7.71 29.7299 6.8 23.9999 6.8C18.2699 6.8 14.4199 7.71 14.1499 9C13.6668 11.6996 13.333 14.4237 13.1499 17.16C14.3499 15.86 18.9999 14.81 23.9999 14.81C28.9999 14.81 33.6499 15.81 34.8799 17.19C34.688 14.4431 34.3441 11.7089 33.8499 9Z" fill="#656769"/>
<path d="M24 9.52C27.4665 9.47768 30.9152 10.022 34.2001 11.13C34 9.91 33.85 9 33.85 9C33.58 7.71 29.73 6.8 24 6.8C18.27 6.8 14.42 7.71 14.15 9C14.15 9 13.99 9.88 13.8 11.1C17.0867 10.0022 20.5353 9.46801 24 9.52Z" fill="#525252"/>
<path d="M33.8499 9C33.5799 7.71 29.7299 6.8 23.9999 6.8C18.2699 6.8 14.4199 7.71 14.1499 9C13.6668 11.6996 13.333 14.4237 13.1499 17.16C14.3499 15.86 18.9999 14.81 23.9999 14.81C28.9999 14.81 33.6499 15.81 34.8799 17.19C34.688 14.4431 34.3441 11.7089 33.8499 9Z" stroke="#45413C" stroke-linecap="round" stroke-linejoin="round"/>
</svg>
