<svg width="48" height="48" viewBox="0 0 48 48" fill="none" xmlns="http://www.w3.org/2000/svg">
<path d="M23.55 17.33L8.54997 9.69001C8.46807 9.64805 8.39934 9.5843 8.35135 9.50578C8.30335 9.42727 8.27795 9.33703 8.27795 9.24501C8.27795 9.15298 8.30335 9.06274 8.35135 8.98423C8.39934 8.90571 8.46807 8.84196 8.54997 8.80001L23.55 1.11001C23.6921 1.03636 23.8499 0.997925 24.01 0.997925C24.1701 0.997925 24.3278 1.03636 24.47 1.11001L39.47 8.80001C39.5519 8.84196 39.6206 8.90571 39.6686 8.98423C39.7166 9.06274 39.742 9.15298 39.742 9.24501C39.742 9.33703 39.7166 9.42727 39.6686 9.50578C39.6206 9.5843 39.5519 9.64805 39.47 9.69001L24.47 17.33C24.3278 17.4036 24.1701 17.4421 24.01 17.4421C23.8499 17.4421 23.6921 17.4036 23.55 17.33Z" fill="#656769" stroke="#45413C" stroke-linecap="round" stroke-linejoin="round"/>
<path d="M8.31006 9.24001V17.19" stroke="#45413C" stroke-linecap="round" stroke-linejoin="round"/>
<path d="M9.26996 17.18C9.27958 17.0429 9.26084 16.9053 9.21491 16.7758C9.16898 16.6463 9.09685 16.5276 9.00301 16.4272C8.90918 16.3268 8.79565 16.2468 8.66953 16.1922C8.5434 16.1377 8.40738 16.1097 8.26996 16.11C8.13253 16.1097 7.99651 16.1377 7.87039 16.1922C7.74426 16.2468 7.63074 16.3268 7.5369 16.4272C7.44307 16.5276 7.37093 16.6463 7.325 16.7758C7.27908 16.9053 7.26034 17.0429 7.26996 17.18L7.07996 20.87H9.45996L9.26996 17.18Z" fill="#FFE500" stroke="#45413C" stroke-linecap="round" stroke-linejoin="round"/>
<path d="M31.54 34.09L24 31.22L16.46 34.09C15.1814 34.5779 14.0811 35.4423 13.3044 36.569C12.5276 37.6957 12.1112 39.0315 12.11 40.4V45H35.89V40.4C35.8888 39.0315 35.4723 37.6957 34.6956 36.569C33.9189 35.4423 32.8185 34.5779 31.54 34.09Z" fill="#656769"/>
<path d="M31.54 34.09L24 31.22L16.46 34.09C15.1814 34.5779 14.0811 35.4423 13.3044 36.569C12.5276 37.6957 12.1112 39.0315 12.11 40.4V43.4C12.1112 42.0315 12.5276 40.6957 13.3044 39.569C14.0811 38.4423 15.1814 37.5779 16.46 37.09L24 34.21L31.54 37.08C32.8185 37.5679 33.9189 38.4323 34.6956 39.559C35.4723 40.6857 35.8888 42.0215 35.89 43.39V40.39C35.8868 39.0232 35.4694 37.6896 34.6928 36.5649C33.9162 35.4401 32.8169 34.5773 31.54 34.09Z" fill="#525252"/>
<path d="M31.54 34.09L24 31.22L16.46 34.09C15.1814 34.5779 14.0811 35.4423 13.3044 36.569C12.5276 37.6957 12.1112 39.0315 12.11 40.4V45H35.89V40.4C35.8888 39.0315 35.4723 37.6957 34.6956 36.569C33.9189 35.4423 32.8185 34.5779 31.54 34.09Z" stroke="#45413C" stroke-linecap="round" stroke-linejoin="round"/>
<path d="M24 35.11C24 35.11 21.46 34 21.46 32.57V29.72C21.4587 29.3856 21.5234 29.0542 21.6505 28.7449C21.7775 28.4356 21.9644 28.1544 22.2004 27.9175C22.4364 27.6806 22.7168 27.4926 23.0257 27.3643C23.3345 27.236 23.6656 27.17 24 27.17C24.3344 27.17 24.6655 27.236 24.9743 27.3643C25.2831 27.4926 25.5636 27.6806 25.7996 27.9175C26.0356 28.1544 26.2225 28.4356 26.3495 28.7449C26.4766 29.0542 26.5413 29.3856 26.54 29.72V32.57C26.54 34 24 35.11 24 35.11Z" fill="#FFCEBF"/>
<path d="M24 27.17C23.3263 27.17 22.6803 27.4376 22.2039 27.9139C21.7276 28.3903 21.46 29.0363 21.46 29.71V30.31C21.46 30.9836 21.7276 31.6297 22.2039 32.1061C22.6803 32.5824 23.3263 32.85 24 32.85C24.6736 32.85 25.3197 32.5824 25.796 32.1061C26.2724 31.6297 26.54 30.9836 26.54 30.31V29.72C26.5413 29.3856 26.4766 29.0542 26.3495 28.7449C26.2224 28.4356 26.0356 28.1544 25.7996 27.9175C25.5636 27.6806 25.2831 27.4926 24.9743 27.3643C24.6655 27.236 24.3344 27.17 24 27.17Z" fill="#FFB59E"/>
<path d="M24 35.11C24 35.11 21.46 34 21.46 32.57V29.72C21.4587 29.3856 21.5234 29.0542 21.6505 28.7449C21.7775 28.4356 21.9644 28.1544 22.2004 27.9175C22.4364 27.6806 22.7168 27.4926 23.0257 27.3643C23.3345 27.236 23.6656 27.17 24 27.17C24.3344 27.17 24.6655 27.236 24.9743 27.3643C25.2831 27.4926 25.5636 27.6806 25.7996 27.9175C26.0356 28.1544 26.2225 28.4356 26.3495 28.7449C26.4766 29.0542 26.5413 29.3856 26.54 29.72V32.57C26.54 34 24 35.11 24 35.11Z" stroke="#45413C" stroke-linecap="round" stroke-linejoin="round"/>
<path d="M13.45 36.35L17.06 45" stroke="#45413C" stroke-linecap="round" stroke-linejoin="round"/>
<path d="M34.5499 36.35L30.9399 45" stroke="#45413C" stroke-linecap="round" stroke-linejoin="round"/>
<path d="M20.54 40.48L21.27 45" stroke="#45413C" stroke-linecap="round" stroke-linejoin="round"/>
<path d="M27.46 40.48L26.73 45" stroke="#45413C" stroke-linecap="round" stroke-linejoin="round"/>
<path opacity="0.15" d="M24 47C32.2843 47 39 46.3284 39 45.5C39 44.6716 32.2843 44 24 44C15.7157 44 9 44.6716 9 45.5C9 46.3284 15.7157 47 24 47Z" fill="#45413C"/>
<path d="M24.0001 6.91C26.6045 6.91 29.1022 7.94461 30.9438 9.78621C32.7854 11.6278 33.8201 14.1256 33.8201 16.73V21.87H14.1801V16.73C14.1801 14.1256 15.2147 11.6278 17.0563 9.78621C18.8979 7.94461 21.3956 6.91 24.0001 6.91Z" fill="#A86C4D" stroke="#45413C" stroke-linecap="round" stroke-linejoin="round"/>
<path d="M34.87 21.12C34.8214 20.7528 34.6625 20.409 34.4143 20.134C34.1661 19.859 33.8403 19.6659 33.48 19.58L32.89 19.42C32.4553 19.2972 32.073 19.0349 31.8019 18.6736C31.5309 18.3122 31.3861 17.8717 31.39 17.42V15.38C31.3889 14.9676 31.2522 14.567 31.001 14.24C30.7499 13.9129 30.3981 13.6775 30 13.57C28.0931 14.3312 26.0528 14.7019 24 14.66C21.9472 14.7019 19.9069 14.3312 18 13.57C17.6 13.6756 17.246 13.9102 16.9929 14.2375C16.7398 14.5647 16.6017 14.9663 16.6 15.38V17.44C16.6038 17.8917 16.4591 18.3322 16.1881 18.6936C15.917 19.0549 15.5347 19.3172 15.1 19.44L14.51 19.6C14.1497 19.6859 13.8239 19.879 13.5757 20.154C13.3275 20.429 13.1686 20.7728 13.12 21.14C13.0933 21.3932 13.1202 21.6491 13.1992 21.8911C13.2781 22.1332 13.4071 22.3558 13.578 22.5446C13.7488 22.7333 13.9575 22.8839 14.1905 22.9865C14.4234 23.0891 14.6754 23.1414 14.93 23.14H15.04C15.274 25.3506 16.3178 27.3964 17.9703 28.8832C19.6228 30.37 21.7671 31.1926 23.99 31.1926C26.2129 31.1926 28.3572 30.37 30.0097 28.8832C31.6622 27.3964 32.706 25.3506 32.94 23.14H33.05C33.3073 23.1432 33.5623 23.0914 33.798 22.9883C34.0337 22.8851 34.2447 22.7329 34.4169 22.5417C34.5892 22.3505 34.7187 22.1249 34.7968 21.8797C34.8749 21.6346 34.8999 21.3756 34.87 21.12Z" fill="#FFCEBF" stroke="#45413C" stroke-linecap="round" stroke-linejoin="round"/>
<path d="M18.57 20.91C18.57 21.0623 18.6152 21.2112 18.6998 21.3378C18.7844 21.4644 18.9046 21.5631 19.0453 21.6214C19.186 21.6797 19.3409 21.6949 19.4902 21.6652C19.6396 21.6355 19.7768 21.5622 19.8845 21.4545C19.9922 21.3468 20.0655 21.2096 20.0952 21.0602C20.1249 20.9109 20.1097 20.756 20.0514 20.6153C19.9931 20.4746 19.8944 20.3544 19.7678 20.2698C19.6412 20.1852 19.4923 20.14 19.34 20.14C19.2385 20.1387 19.1378 20.1577 19.0438 20.1959C18.9497 20.2341 18.8643 20.2908 18.7925 20.3625C18.7208 20.4343 18.6641 20.5197 18.6259 20.6138C18.5877 20.7078 18.5687 20.8085 18.57 20.91Z" fill="#45413C" stroke="#45413C" stroke-linecap="round" stroke-linejoin="round"/>
<path d="M29.43 20.91C29.43 21.0623 29.3849 21.2112 29.3002 21.3378C29.2156 21.4644 29.0954 21.5631 28.9547 21.6214C28.814 21.6797 28.6592 21.6949 28.5098 21.6652C28.3604 21.6355 28.2232 21.5622 28.1155 21.4545C28.0079 21.3468 27.9345 21.2096 27.9048 21.0602C27.8751 20.9109 27.8903 20.756 27.9486 20.6153C28.0069 20.4746 28.1056 20.3544 28.2322 20.2698C28.3589 20.1852 28.5077 20.14 28.66 20.14C28.7615 20.1387 28.8622 20.1577 28.9563 20.1959C29.0503 20.2341 29.1357 20.2908 29.2075 20.3625C29.2793 20.4343 29.3359 20.5197 29.3741 20.6138C29.4124 20.7078 29.4314 20.8085 29.43 20.91Z" fill="#45413C" stroke="#45413C" stroke-linecap="round" stroke-linejoin="round"/>
<path d="M21.16 25.6C21.0968 25.6014 21.0345 25.6164 20.9776 25.644C20.9206 25.6716 20.8703 25.7112 20.83 25.76C20.7882 25.8071 20.7575 25.863 20.7402 25.9236C20.7228 25.9842 20.7194 26.0479 20.73 26.11C20.8651 26.8792 21.267 27.5762 21.865 28.0784C22.4631 28.5807 23.2191 28.856 24 28.856C24.781 28.856 25.537 28.5807 26.1351 28.0784C26.7331 27.5762 27.135 26.8792 27.27 26.11C27.2807 26.0479 27.2772 25.9842 27.2599 25.9236C27.2426 25.863 27.2119 25.8071 27.17 25.76C27.1298 25.7112 27.0795 25.6716 27.0225 25.644C26.9656 25.6164 26.9033 25.6014 26.84 25.6H21.16Z" fill="#FF6242"/>
<path d="M24.0001 27C23.0972 26.9647 22.209 27.2361 21.4801 27.77C21.7952 28.1209 22.1807 28.4016 22.6114 28.5937C23.0421 28.7858 23.5085 28.8851 23.9801 28.8851C24.4517 28.8851 24.9181 28.7858 25.3488 28.5937C25.7795 28.4016 26.165 28.1209 26.4801 27.77C25.7621 27.2447 24.8894 26.9737 24.0001 27Z" fill="#FFA694"/>
<path d="M21.16 25.6C21.0968 25.6014 21.0345 25.6164 20.9776 25.644C20.9206 25.6716 20.8703 25.7112 20.83 25.76C20.7882 25.8071 20.7575 25.863 20.7402 25.9236C20.7228 25.9842 20.7194 26.0479 20.73 26.11C20.8651 26.8792 21.267 27.5762 21.865 28.0784C22.4631 28.5807 23.2191 28.856 24 28.856C24.781 28.856 25.537 28.5807 26.1351 28.0784C26.7331 27.5762 27.135 26.8792 27.27 26.11C27.2807 26.0479 27.2772 25.9842 27.2599 25.9236C27.2426 25.863 27.2119 25.8071 27.17 25.76C27.1298 25.7112 27.0795 25.6716 27.0225 25.644C26.9656 25.6164 26.9033 25.6014 26.84 25.6H21.16Z" stroke="#45413C" stroke-linecap="round" stroke-linejoin="round"/>
<path d="M18.0601 24.79C18.6123 24.79 19.0601 24.5214 19.0601 24.19C19.0601 23.8586 18.6123 23.59 18.0601 23.59C17.5078 23.59 17.0601 23.8586 17.0601 24.19C17.0601 24.5214 17.5078 24.79 18.0601 24.79Z" fill="#FFB59E"/>
<path d="M29.9399 24.79C30.4922 24.79 30.9399 24.5214 30.9399 24.19C30.9399 23.8586 30.4922 23.59 29.9399 23.59C29.3877 23.59 28.9399 23.8586 28.9399 24.19C28.9399 24.5214 29.3877 24.79 29.9399 24.79Z" fill="#FFB59E"/>
<path d="M14.68 8.99999C14.68 7.77999 18.58 6.78999 24 6.78999C29.42 6.78999 33.32 7.78999 33.32 8.99999L34.32 17.59C34.32 16.31 29.71 15.27 24.02 15.27C18.33 15.27 13.72 16.27 13.72 17.59L14.68 8.99999Z" fill="#656769"/>
<path d="M24 10.07C28.62 10.07 32.22 10.67 33.61 11.5L33.32 8.99999C33.32 7.77999 29.42 6.78999 24 6.78999C18.58 6.78999 14.68 7.78999 14.68 8.99999L14.39 11.53C15.78 10.67 19.38 10.07 24 10.07Z" fill="#525252"/>
<path d="M14.68 8.99999C14.68 7.77999 18.58 6.78999 24 6.78999C29.42 6.78999 33.32 7.78999 33.32 8.99999L34.32 17.59C34.32 16.31 29.71 15.27 24.02 15.27C18.33 15.27 13.72 16.27 13.72 17.59L14.68 8.99999Z" stroke="#45413C" stroke-linecap="round" stroke-linejoin="round"/>
</svg>
